<mxfile host="65bd71144e">
    <diagram id="HIP3nbAZw_EuaXWnEj3U" name="Page-1">
        <mxGraphModel dx="576" dy="740" grid="1" gridSize="10" guides="1" tooltips="1" connect="1" arrows="1" fold="1" page="1" pageScale="1" pageWidth="850" pageHeight="1100" math="0" shadow="0">
            <root>
                <mxCell id="0"/>
                <mxCell id="1" parent="0"/>
                <mxCell id="7" value="http://ics2o.mths.ca" style="swimlane;whiteSpace=wrap;html=1;" parent="1" vertex="1">
                    <mxGeometry x="40" y="40" width="830" height="480" as="geometry"/>
                </mxCell>
                <mxCell id="8" value="Area of Trapezoid, with JS" style="text;html=1;align=center;verticalAlign=middle;whiteSpace=wrap;rounded=0;fontSize=26;fontStyle=1" vertex="1" parent="7">
                    <mxGeometry x="10" width="330" height="110" as="geometry"/>
                </mxCell>
                <mxCell id="9" value="Formula&lt;div&gt;A = [ (a + b) / 2 ] h&lt;/div&gt;" style="text;html=1;align=center;verticalAlign=middle;whiteSpace=wrap;rounded=0;fontSize=18;" vertex="1" parent="7">
                    <mxGeometry x="20" y="90" width="200" height="60" as="geometry"/>
                </mxCell>
                <mxCell id="10" value="&lt;font style=&quot;font-size: 22px;&quot;&gt;Please enter integers for dimensions:&lt;/font&gt;" style="text;html=1;align=center;verticalAlign=middle;whiteSpace=wrap;rounded=0;" vertex="1" parent="7">
                    <mxGeometry x="270" y="151" width="210" height="50" as="geometry"/>
                </mxCell>
                <mxCell id="11" value="" style="rounded=1;whiteSpace=wrap;html=1;" vertex="1" parent="7">
                    <mxGeometry x="100" y="225" width="120" height="30" as="geometry"/>
                </mxCell>
                <mxCell id="13" value="" style="rounded=1;whiteSpace=wrap;html=1;" vertex="1" parent="7">
                    <mxGeometry x="100" y="280" width="120" height="30" as="geometry"/>
                </mxCell>
                <mxCell id="12" value="" style="rounded=1;whiteSpace=wrap;html=1;" vertex="1" parent="7">
                    <mxGeometry x="100" y="335" width="120" height="30" as="geometry"/>
                </mxCell>
                <mxCell id="14" value="A base:" style="text;html=1;align=center;verticalAlign=middle;whiteSpace=wrap;rounded=0;" vertex="1" parent="7">
                    <mxGeometry x="132" y="201" width="60" height="30" as="geometry"/>
                </mxCell>
                <mxCell id="15" value="B&lt;span style=&quot;font-family: monospace; font-size: 0px; text-align: start; text-wrap-mode: nowrap;&quot;&gt;%3CmxGraphModel%3E%3Croot%3E%3CmxCell%20id%3D%220%22%2F%3E%3CmxCell%20id%3D%221%22%20parent%3D%220%22%2F%3E%3CmxCell%20id%3D%222%22%20value%3D%22A%20base%3A%22%20style%3D%22text%3Bhtml%3D1%3Balign%3Dcenter%3BverticalAlign%3Dmiddle%3BwhiteSpace%3Dwrap%3Brounded%3D0%3B%22%20vertex%3D%221%22%20parent%3D%221%22%3E%3CmxGeometry%20x%3D%22170%22%20y%3D%22235%22%20width%3D%2260%22%20height%3D%2230%22%20as%3D%22geometry%22%2F%3E%3C%2FmxCell%3E%3C%2Froot%3E%3C%2FmxGraphModel%3E&lt;/span&gt;&amp;nbsp;base:" style="text;html=1;align=center;verticalAlign=middle;whiteSpace=wrap;rounded=0;" vertex="1" parent="7">
                    <mxGeometry x="130" y="254" width="60" height="30" as="geometry"/>
                </mxCell>
                <mxCell id="16" value="Height:" style="text;html=1;align=center;verticalAlign=middle;whiteSpace=wrap;rounded=0;" vertex="1" parent="7">
                    <mxGeometry x="130" y="309" width="60" height="30" as="geometry"/>
                </mxCell>
                <mxCell id="19" value="mm" style="text;html=1;align=center;verticalAlign=middle;whiteSpace=wrap;rounded=0;" vertex="1" parent="7">
                    <mxGeometry x="210" y="335" width="60" height="30" as="geometry"/>
                </mxCell>
                <mxCell id="18" value="mm" style="text;html=1;align=center;verticalAlign=middle;whiteSpace=wrap;rounded=0;" vertex="1" parent="7">
                    <mxGeometry x="210" y="279" width="60" height="30" as="geometry"/>
                </mxCell>
                <mxCell id="17" value="mm" style="text;html=1;align=center;verticalAlign=middle;whiteSpace=wrap;rounded=0;" vertex="1" parent="7">
                    <mxGeometry x="210" y="225" width="60" height="30" as="geometry"/>
                </mxCell>
                <mxCell id="20" value="" style="rounded=1;whiteSpace=wrap;html=1;" vertex="1" parent="7">
                    <mxGeometry x="102" y="390" width="120" height="60" as="geometry"/>
                </mxCell>
                <mxCell id="21" value="&lt;font style=&quot;font-size: 18px;&quot;&gt;Calculate Area&lt;/font&gt;" style="text;html=1;align=center;verticalAlign=middle;whiteSpace=wrap;rounded=0;" vertex="1" parent="7">
                    <mxGeometry x="130" y="405" width="60" height="30" as="geometry"/>
                </mxCell>
                <mxCell id="22" value="&lt;font style=&quot;font-size: 24px;&quot;&gt;Area is:&lt;/font&gt;" style="text;html=1;align=center;verticalAlign=middle;whiteSpace=wrap;rounded=0;" vertex="1" parent="7">
                    <mxGeometry x="270" y="375" width="140" height="90" as="geometry"/>
                </mxCell>
                <mxCell id="23" value="" style="shape=image;verticalLabelPosition=bottom;labelBackgroundColor=default;verticalAlign=top;aspect=fixed;imageAspect=0;image=data:image/png,iVBORw0KGgoAAAANSUhEUgAAAooAAAFWCAMAAADZvkx3AAAABGdBTUEAALGPC/xhBQAAAAFzUkdCAK7OHOkAAAFZaVRYdFhNTDpjb20uYWRvYmUueG1wAAAAAAA8eDp4bXBtZXRhIHhtbG5zOng9ImFkb2JlOm5zOm1ldGEvIiB4OnhtcHRrPSJYTVAgQ29yZSA2LjAuMCI+CiAgIDxyZGY6UkRGIHhtbG5zOnJkZj0iaHR0cDovL3d3dy53My5vcmcvMTk5OS8wMi8yMi1yZGYtc3ludGF4LW5zIyI+CiAgICAgIDxyZGY6RGVzY3JpcHRpb24gcmRmOmFib3V0PSIiCiAgICAgICAgICAgIHhtbG5zOnRpZmY9Imh0dHA6Ly9ucy5hZG9iZS5jb20vdGlmZi8xLjAvIj4KICAgICAgICAgPHRpZmY6T3JpZW50YXRpb24+MTwvdGlmZjpPcmllbnRhdGlvbj4KICAgICAgPC9yZGY6RGVzY3JpcHRpb24+CiAgIDwvcmRmOlJERj4KPC94OnhtcG1ldGE+Chle4QcAAACEZVhJZk1NACoAAAAIAAUBEgADAAAAAQABAAABGgAFAAAAAQAAAEoBGwAFAAAAAQAAAFIBKAADAAAAAQACAACHaQAEAAAAAQAAAFoAAAAAAAABLAAAAAEAAAEsAAAAAQADoAEAAwAAAAEAAQAAoAIABAAAAAEAAAKKoAMABAAAAAEAAAFWAAAAACdG9NkAAAMAUExURUxpcQAAAAAAAAAAAAAAAAAAAAAAAAAAAAAAAAAAAAAAAAAAAAAAAAAAAAAAAAAAAAAAAAAAAAAAAAAAAAAAAAAAAAAAAAAAAAAAAAAAAAAAAAAAAAAAAAAAAAAAAAAAAAAAAAAAAAAAAAAAAAAAAAAAAAAAAAAAAAAAAAAAAAAAAAAAAAAAAAAAAAAAAAAAAAAAAAAAAAAAAAAAAAAAAAAAAAAAAAAAAAAAAAAAAAAAAAAAAAAAAAAAAAAAAAAAAAAAAAAAAAAAAAAAAAAAAAAAAAAAAAAAAAAAAAAAAAAAAAAAAAAAAAAAAAAAAAAAAAAAAAAAAAAAAAAAAAAAAAAAAAAAAAAAAAAAAAAAAAAAAAAAAAAAAAAAAAAAAAAAAAAAAAAAAAAAAAAAAAAAAAAAAAAAAAAAAAAAAAAAAAAAAAAAAAAAAAAAAAAAAAAAAAAAAAAAAAAAAAAAAAAAAAAAAAAAAAAAAAAAAAAAAAAAAAAAAAAAAAAAAAAAAAAAAAAAAAAAAAAAAAAAAAAAAAAAAAAAAAAAAAAAAAAAAAAAAAAAAAAAAAAAAAAAAAAAAAAAAAAAAAAAAAAAAAAAAAAAAAAAAAAAAAAAAAAAAAAAAAAAAAAAAAAAAAAAAAAAAAAAAAAAAAAAAAAAAAAAAAAAAAAAAAAAAAAAAAAAAAAAAAAAAAAAAAAAAAAAAAAAAAAAAAAAAAAAAAAAAAAAAAAAAAAAAAAAAAAAAAAAAAAAAAAAAAAAAAAAAAAAAAAAAAAAAAAAAAAAAAAAAAAAAAAAAAAAAAAAAAAAAAAAAAAAAAAAAAAAAAAAAAAAAAAAAAAAAAAAAAAAAAAAAAAAAAAAAAAAAAAAAAAAAAAAAAAAAAAAAAAAAAAAAAAAAAAAAAAAAAAAAAAAAAAAAAAAAAAAAAAAAAAAAAAAAAAAAAAAAAAAAAAAAAAAAAAAAAAAAAAAAAAAAAAAAAAAAAAAAAAAAAAAAAAAAAAAAAAAAAAAAAAAAAAAAAAAAAAAAAAAAH5sZ7MAAAD/dFJOUwAfAwT++NIBAgX1+WqDBv38+vb72xb38QfLIdoI78858GyAFfQm4Arq8pLzIBcwFNzOGmS0DYZ3vCUSDAmgnNawZ1YZSRPnHiNoCxjdSt/QNCQdaczFry8bD9m1wOXeEKZTDisqXuHrKJbEyCk1IoRH5BHtrNjX03Ra5pdmyuO5PbGBt9Qss1HJHGOnwsGTXydYPjrpLa6youjsdpTVWY8/goXNMavumr5+VzZ1W0ZBo4guh4qfXXO9qkChbk9VTEg8jcOYi6mOcGDRmURFpcakceJUeX1/Q1DHiW27M05SkXJ6azuQS3xNtp1CnjcyuK1humWbOG97jGK/eKhclbTxiLoAACTySURBVHja7Z11eFTX1od/PWem+5xsmjEaAoSWthQpFGh7K0iFYoWihVJ3d9dbd3d3d3d3d3e71evu8r3fH5NACElIZiY6630e0kkypGTPO3vttc7a+0jdFqdtBpNOJBKJRMKzmmIZRocQ6jx8Lk+GvRTYkBgdQ6w1mU9yGzkbEqNjCLQFRxy200MP7bTT//70y8ZjuHPOLfR53ZfrP8WG0iiKSJX9X2ve1dBJcmFt5I7C0OX/W/dBCgNJYWSjaRQ1Kd7HShob1rKoqoGkYFCNpHDBhCjFksZMlQIpiKTK7V3+CYZRcNYyjq9VGcZBE6Zq1hUHDcgdvsfLoxQoksZ/tcaR8xRpowd677fVlm8oCKWv/thz0uZ/nWwpj1GUiqezUX65F7tGvrv9f2HLF+7xwGqq1Hk3AUyTptQmOldJGz2Sf5i19NsoarHYkxP2OP7n4y7Mz4EN5sSJB3H0ypJ2GJKGfaVZz61U4TnFzePS9Q6cQRWssFeCQ176IskAekaWfxuFLxX3zKTzk9oqpzVc7TnpTDaWwnCs7mcARyuUdBbMmMa4aklX4DkFf7KkvQ8myY+2XDQKJdZDACSyGei9xMIqxfoOjlG1FKkPKQ6Woqk6lCqm9ZGCSmkkSXafKBdW63w8+9i1GqNQnMZfftwVN84dApkqLju1fox2CvqypOQkhToOzlKgUP8hMXSiqp1Uqcfh8FiVknPRSLjHZkWjCBclSUufvAUM4AzVK1WH+hjWnm/X+W86ufzFmUlT5STFegCmVebLjDoD5pmKRhEuxmEYOEkThpBkej2ZYh0Hx9XFXJf/E2tNGLx9rYrXwcBqOUmR1oL1LIU2iheyUnfjWafeai/UgXDo/C/kr7rkVVy9VsU1YGClqWiUlmodCHvUK8dE2h0ub5CJmIpGmxPqTti8XmnQ6Xq411Q02ptAe8HmQX0VT4EbG2QipqLRDirumWNuvQAd6HgYucBNFzlT0WgXFe9L89+FMuhvSHJM3VfyKbSpaLQRURy6urXiBDhioQz6KapYT/nCYShtu52CWP+pV8wxFY1Ske+KlSTV6GoG76+oXga92S5kOFvKdzK+wGxFsdaEC5qYFY81FY1C50SNGPemFMZhXKlzBjBnoSQl1rVk4d1Ikk59iUMVq0bfwuBtFEiuRi/D4WNcIEWxnoc/1M6ghtH6SfFMOHOWJOmGo9hN0cLfDa6kAmZc8tkPW/Svuyq4EpnE5NoJ9VhyiVNrH78HB9uIGoVOihPTqQp4adydh/4ZPlSDfsNAm25NoirfRHbIaAUadOqEwWRY78RNA00c1iNNjosv3DTU6NlXkE5x796jbVSNwlz8Yf7G021P1CLb9kKNWScDgP/rIAWh7qx79pC9dWzd4wHn6NH5P8WWi0aBWctv7j392Edv/nbC/o1ukwqkJV6996x7T9tbCuQ08fYL7xs+fPiJm/y+WqP2OnGT4cOHn7jJlzWaPWuH4cOHD99h1gbWyG0U5uKCxWHY6HQW1fkZRlo4fjfx2Ew0CiQMgyAIw6Z3MUdxGIZx7bddUIcUzX/sFjy2zdCGYRiGYRiGYRiGYRiGYRiGYRiGYRiGYRiGYRiGYRiGYRiGYRhdiSg2msOO9243E20IFkNgmwjbycQN3p3Sw2iKKX9/uv4OWaPtCLUtRrNcKztxoh1wGtEr4TPZikXxuUyuqqLsqUrzW7u/bzsQ6y/kmpgNEiRsSoRchqMDu2Nbm0+KTruTIfny8vsstTD7fNiXNA9+eN1SZc0+t47Ee5YcoUqzpW2TQw0nkaZfY/Hnj3h2tCHaZi4Zz6RdzcW2js//JJOg16aqblBNq9EWZDhGNWVeVayRLibjST5mMbptk5aao0il6L/CIuXFSCeRYVnLHUPp56Q83KnQCoxtOMzbkSNF/6UXUTHQz8hwvqmoyOkf4GFNKzC25VLxJHKJFP2aUtFmRUlRoJ3Ap7jCijptNsbqkyNFmuxEU7H5JfXHGXyOeeZim43wt3h6wYOLXok2FetTqR0uwHtOWd0S6bZJWnQlnnNvX7+RY4NNxQYuLn0l3jNjmLnYJknL3eTYr1qNHWBtKjaMIPEjZDxDfmcutoWKa5PlZdU0VqQwFRcZLV1COgknK7aiTqnj84j+pLihcdtMxUVHRGuAh+UUWVGnxCFnHFVsvOh9e0zFJgoOgeZAMsFn1jVW2knRaWOqGNfE9SxTsZEhi/VL8GnesqJOaePNDaToP0JhEASmYksT6Vn98Rm2rLYr0qWMzy9TweP5fDAyFVvq4uRpeM/B4y2RLl3SUrMfOe6Wlph39CaLGhdYO0QT7+Cpb5PxXHafuViy2sT7eK5UpFugZ6DILUQU2qzYlIs6kJwnva8VdUq1VPwZWb5VGM4gPaSxuyhfjDcVGx05fUPCw79kdxQsRWFCe+cg00cu6Esit8wpvY/s3fvI3rV/jjzyyN579CNlKjY6dk6HgodbrahTkjDzD7KcpEDxNNKN7y9KmYpNrLNDnQs+zV+tqFOCpEXr4tlOseKtSZFqBMBaZ5t8Jx+Txef4VWRFnaKTlt+Q46gaOQU9STeqYiqds1mxKSq14lZ4zzKjLZEuVsVLqOA5xVLYE4b+bdg5K644asVa8g9GjRp1To0NVZMujp5JxrPVKHOxuPi8Qi9SDFfgFPSEfqvbmLQ+RkfHk/Fkj7EYXdQwTqGK3eWcUzySRP9VFQeNYYWz5iKL/koqCbfZVsDCJ0Wnt6niCMWS0wlwwFg72671BNJH4OFh2wpY+Bj+nhT9JspJgX6z82VXWXZSCFGg0yCZ4gcr6hQcn6+mgrXzwxcpHCsLMIWO5L5pfI4DzcUCk5ax+5HjsdrRC+yaQTGJ9CaX4T1vT7VEuqD19lN4Tpi/ucrZnFiMi+MPwnumbWQuFrJU3IIs/7EaRIlidM2ZZDz9Z5mLrV5sa4N8J4RlfSVyUduSS8IvrWus1UP3E1kuXrBAtP1rxUYZPUDCwxQbylYmLVoXz9fzUz5LW4qOM5E+hyRcZ0PZuqTlY3K8Vz0/adH4yTYqRb69Q30NPs3jVtRplYr3UME/65KWQFdleNjezEUn0n8bis+wVmzZYMuTlhV6kWL+xiqnvjB0e8thinaxz854zwlLWyLd4qRlDlU8r8jVmhj3hH4rm4rFD+z2R5LxXLCjudiyVY3Tp1Sx2oIwEvSksbO4jda7qGPJeDIfW1GnZYWHL0nRb/SCq85BT+i1tKlYirHV/5HysJPdobJFb90fqOC39fI8U7F0Ljp9AB6+lbM8cHHxWYO2Isc1pmLbDG+o/4FPsZsVdRZHqPVJckj9Y2ZNxdJGnd94fI6LZUWdxS1nfkWWNesPU9CXxm6WYRRGpXa8FO/pvZkl0s0RaXYa/BL1xQsHkhtgxZwSurjCIXjPe3ubi82Gjw/Jcmz9ayuBLoLesj7uEg5y+AUZz4BlzcVmkhYdjOfk+kvqSJu9+PqpNimWdEGutUl72M62AjY9Rm8s1AlR56fMxBKvyLUPePi7dY01qeI7VPBAg9wuimMbrxKvyQONg2SCf1rXWBNJy9JDSHCfjU7bL4VCPZ3Ap/mvFRgbX0/3oIoz6johjLZNpH/fD5/hjLGWvCz6TnXagypOs9prO7l46ki8p++q5uKii+lZpLhpdMO6jQutkaRtgtCgjcl4DhhuLi4yNN9Qwa8brl3c/A9GqQdcN5LzpCZY11gD5QYdTo7zGqjoFM35xSCr5rRNHNLVJDysZl1j9Ql1G0mWbDgDBnoBjrcTItqmZhHpF+DhOCvq1B8WHU+WyxdJWoKBpLPWDtFGoSjU+uDT/NqKOvVMHJVq2AkhySm0zpy2TaSfrSCZ4w+BVS7mr6FvJct6jdxBrSf0NxXb0MVR++E9r020RLp29nMH4flk0TBhrbNt7uI2q5DxHH6OuZhPWu4ix86Vi5ZtTMW2D0huCzKeqmssRksK9RYVfNbIWJiK7TD4upmUh8Osa0yRVh5KggsbKSnYWrHtCaQPwcPldoB8rO/IcuainRC1GbRtKGjjqSDQn8CnWKncizrO6RSq+Feja5UZULG/qdjGr0Csu9L4HBeV+VbAQHuR4oD9G7nWHOhhuNquBbRDIn3hLnjPHmPKOpGOtRIVrNNEbPjyGOuHaBcXNzwY79l6iTJ20WnqJNIc07iKkd2joL0mhOp/k/H0ur18XYx1Lklea2ruC+zqaPsQSu+Q9vBk2RZ1Iv2BLHdYgbXj1+y6Fzx8V6ZbASOtmILkZMuSO/6liLQcJBPcX55dY7E+Iss8y5I7w7I91Cfg07xTjgVGJ7c5nieb+tWDKDJJ2zORvn0IyQy3VJbfginUvmQYWNlE0hLN/2C0k4vDZuA9665cdol0qG2p4N4m3oOBdth9lfMseLfrgmn1Pch4djmxzFyMtOFQEpzYhG2RPoX9Yqtxt6uLmkfOk3uzvLYCxlqOLFs2cSaEUzyN9JANLUS3J4F0FgkPr5bTVkDndCRV/KnJNXLQF/rZzTLa2UWnNcHDh2VU1Al0OykO2KbJCGytsx0yQ4Q6DHyK18unqBPrLCr4a9O/r6nYUS/MY0l8jp+5MinqOI25lDTPmoqdjkrtOgnvuX7/8kikYx1GkpnNdIGZih3n4sQl8Z6jZpeFi5GOJsuhzcSAoK/d46/D5ongaDJJKp4tAxeDfCfERk2a5hRPI9XLijkdQij9lrSHp7p/11is5clyUTMFg0jXw6RKK3F30FSha8HDu919K6BT1JcMXzVTLwg0a5mRE+zCX0ctoAL9BXyCl7t5gTHUM2SY0exlPWuH6NjZItb0BD7Ho927wBjqdCq4v/nCVeBsTuzYRPqGm0hm2H1QN05eIm04gAQ7mGqd3MVN++I9PU/tvi7G+pws/7a7Y3T612ns82Q8/X7fXV10Tr1J8qptr+r8Luolcp7Ej920ayzQ70hz2WaLK9QEFr87/qXScyQ8jFPQHVPIUP9HBTcvLjELLIHuBMv6SK+Ah6W6Y1HHacwFpPl+sTWCPYebCh3/aoV6H3yaB7thUSfWnSRZZjHn4YSaA9dZjt0ZEunzB5DM8Oew2y3uI/2ZLA8v9veaBhXbWIzuDC5u8B7ec8gK3SyRDnROAqpObV4yO+qzU7m42Vy859I9u5eLsY4jy4GLDb1BT2sS6zyvmTuJXBJ/d3cq6jhFPcnw9GLXwNY624kIpRdIebizG3WNhZpAhq0Xv8HZVOxcyyr9Azz8Ry7oNr/Tf8myxuKTMVOxc0WzQGeDT3FFdynqRBo/gAQ7Lr5K0xIVgzAMQ6v3tI+Lsd7I4HOs100OkI/1BFluWexk15LbTdZdigps5mynRHqHwXjPKdt3h0TaOc0lydkteF8FA0lXNKdiKF149h2vPLW33dO43Vxc+Uq8Z+CwbuBioL+RZpfNFr9lJdAlcEszB8OHmnVLCiA9b1Nzsb1iWuUjZJIM+V3XdzHUblTwegsmRafKQ69t5g5Coa4iT5oD9jYX2+v10yWkPZzc1Ys6TqtfQJrzW2KOy2c5TY7JNSSueP+xH9cYygD2sI2B7RbWtAZ4+LyLHyAf638kWaVldwZycRw17Wl02WW7SpJmX4Bv6tYvrvH4Xu+rzm4N08oSSKAe4BN81rWX6JG+IMsvii8GxLqflVUdhuEgnUaWJxr5kVEcOCmq89kFcRhJcnEwvys3CJ1caAl4qyJbqK/Ap3mrKxcYA+2agOymxdetI71xTX7lHGkHco3Y7eL6Cxy5sN4ntZFmka8ZLUyk9+pPMsOW1V23wBhrKbLcWIqJPaoLD5HOSeQWvc1B5DRiysUHHfXaSf84VZGcFF34r3cOHBQpevXA61+76DxFgbTr/WcesvED4y3paa2Lk7fGew4a31UTaadgJBl+bOEs5MK4ufp2UDejPQOTxjZYfUbSHTm2+uIWILeaYg3bfQjgR+t3m+fz7rMlvZh/OOB8c7G1Lo75FO/Z5b4u6mKo6WSYFrYs3W0+g57/rGo9Dvs2sNtJpzPpGkl77pKC7aQ9L/pjMsdWehdW2X0wVbDBoCUZsvEqCQYwaapd6m5tfNMfyXnS+3bNrrFAj5LlupYtMJzGfvTZiMVdgo5DnUzuzYbzbKiruWAjuaBGv6CCmXKSPoRLt+C3w6SpZ5Fky5FcO0La4QSy/MuWi60v6nxDwsO/uuIB8pFWrWhZJ0T+d90Wdm/2NrxOks5mrQ1V3dDEZ6GHxjpFmlhB6qZtFA3Sdnj4Oj+Mc6mi/zFSFGpHcqxtKrbaRac7wMOtXbCoE+sVsjzS0lgYDCRd0dyGAqcd9z1iS/jnqQ0HI9AWHJBvAA+1Jjwvp1C3keFZVQZStfYhl95T1ZEU623Y0gJ0IUWdc8GnuLnLlSCc0/Uk2aml8XmxnTmhjgZIwuuDFhqMQMOyPD//GJTpc1ZQpFjrk87lzxaN1YPU0KVrXX0L5trVmoLmlvOqSGb4VdTFijqhliXN4O1b+qovtl/Raa9zV3vhKBI5Ri7UEBHqMHinzk6X/xNrfdKpUbUqrkaqtrwZah1YxVQsLJFecSu8Z5UudoB8qJ9Twc9b/AZafOusk6TqORUM4KD6x9PGuh92m/8/yteE8ipusEDFilVNxeJdHD0T79lvVFdy0Wn7waRZtsVr3BZ0cQdhGEuzJzGA5VX/6so9LOK8qdg2MTo4nkyS7DFdyMVYD1HF9Wrxi97CvS2uRreT5uB6PzjUPNi2wVraVGyjWKd1SHu4ret0jUVaiyyvtHyB2+J90NV6lMTQ8QueGepA2LhBHchUbKOijrQ8eHi4q3SNBdoTyK7a0qqJU9zS0yFCHUEqO3lB5A91MxxQr+02iEzFtlt5BToNfIKru0iBMdY+ZHm0NRWoaTBgsxap+D7sUu90nViXU8XJCzXhmIpt52KsZ9L4HDd2ia2ATuE0MkxvuYqBToNbm36fufmbTkP9CXav52yo8/BsWbt4cZW64zQFodYnnZptKrZJIr3JZfgMG0/tAslLqB/xjAxa8ZI79dmx+UJObXNOtb6BOfXekE7BSDxTFMVxHEuHcbJCU7FNXVx1c7xn5Ead38VAN5JlqVZN4M2dOuvk3txECsMwrNZm+zU4rTF/iZHv8p9dzoEKVKmrSKdGKZRUre9I+2G1j++BQ1xgLha3/qo5k4yn35ed3cVIm2ZJsGfr1rXNnMUd6DmYd4MkadBabLXRQj/ZSXOpgENe/PyVla6k3whFijSFJLNqjb2XJL+vfbwlDLZ+xeKLOqeT9vB0Jy/qxHqXLGuVsulgK6pgvcOuefKBLP/esMEaNNDKW5OuynfG+mUVKqre6BSyHDu+ximsWXY/qjhp1ZpIYc2r6bTnutUrTadiizovkvAwpXOf1uG0CkkeKl0HR6DjqGPmVYu2hoTaftvab++xg8JA3ydrP636Xs/V/c3kY1qj7vFatlwsMvJFegI87NOZizqhzifN4NVL92o76ZeXnNl79y1eH7erGjtmLZB2uPyS9U6//00plNOI96fvO33C9H1/3G6Eblh/32emT5i+7/T3l9YmT901Yfr0CXedfLfJVOxrEupr8GnW7sRdY6FeoKJeg0KLp/yg+RS6bggaMzyqGw0XaOGrjVETj43iE+llh5LM8EXcWQuMTpvtQpq/tW7ejiTX3DQahs65KIyb/KFBHAZBWNcqFtbhFDX22BKXkrjYZ2e854TOeoB8rJ2oYq5aFZ8DLXvQzl81b6+t7jqfi9v3xnsu3bFzuhjpEbL8vXWTttMyMLjGQmjXIpaOJZfE/6YzbgUMtCMJKlZtlVVO8UgSvTY0FbsYobQbKQ8PdcKtgLGuI8tLrc2qgr52s4yuSOD0ASThg053gLxTuDUZJrRaRTsWvmviQj0EPsVuna3AGOppPD2D1iYZpmKXdTHWbzw+x7GdrGss0IFkubbV/yhTsSsn0jteivcc2akOkI90apYEu7baKVOxS7u4wgl4z859OpGLsX5Bli9ar1TQF/pZ2tJFiRV/QSbJ0L91HhedliHJna1NWpzirUkPsWJOVyWUHift4evO0jUW6nvSXND6TohIG8PAwK6odFUCaR9IwhOdZCtgqNep4P9an0lFWvHPeyxrZ3B2XaJAU8AneKBTFHVqOyF+V8C/JZr/weiauFBPg0+zbWfoGot1NlX0ViG3pIiCyObErp5If9mPZIYzazq+wBjpFqoavZWFUR4ubjQS79m8ww+QD7QDCQaMt0Bbvi5O3RjvuWyTDnYx1hpk+a8dL1y+xNKN5DypZzq0a8wp3poMzxSoYmgGdwMC6WoSHk7ryK6xUL/E07fA4mAk2Q34ugGR08Pg4aMOLOoE+iNZjis0aXn2Y9sz0B1woW4Dn2KdDivqRNqoikTinIKSllAfwG6W73ST5OXZLMkMx3fUAfKxHibLnwvVaQZkR5uL3cTFUfvhPcuM7phE2mkmSQ4raFKuvVnGyqZid3Fx/1Xwnq1W7AgXQz1LmkvHFLjeC3pCf+tX7C7EcluQS5I9rwNcDHUzFVxR6OrAWme7F6F0MykP57Z715jTNpeR5vZCE3hTsZsRSLdCEg6Va99XNdarBXdCmIrdERfoT+AT/NDOBcZIW1LF5wVn77ZW7H4uxrorh89xYLtuBQx0IgkGFLojoAW3mzS6YiJ93y74DG9PbUcXY91PltMLL69HO5PO2jarbufihgfjPdMmt1si7RTPIMO+BasY6Ao41kzsbsSq/jeZJP1ntZeLob7C0zcq+CKyk3b6rtquQXc7Qukt0h5+2U5FnUAXkV3ofqQFuGjdEN2RQPqMRBLmtMsB8vlOiNSKxQRYF8ZmYnckirQc+ATXtUdRJ9ahZDna9o4ajU4y+gR8mkvaoWvM6TWSXGU7CYwmEunfDcFnWKvND5APdQw5Jk21tZ7RlIvDZuA9Jyzdxol0qHWo4KzijI/C0Eo53djF1U/Bey7YoU1ddNr/ANLsVdRS0eXTH6ObEkvzyHkyH7dljI71J6o4pahdUpEm7rb2MHOx+xJKV5DysFMbbgXMd0IsV5TtgS6GmVZZ7MYETmuCh2/b7AD5QBeSYGiRmwHCGeQG2IaC7owLdSf4FD9vqwJjrM/Ism2RlRw7dbYMXIz1WBKf4eK26RpzqhxIhruKVdFaZ8sikd51Ej5D783awsVQT+LZ3BW5zDMVy8TFEUviPe/t3QZFnUDzyPJRsZabiuVBrPBoMkmGLltyFyNNTpJIjSpWIlOxTAilB0l72K7UXWOx7iDL8UWnREFPu8dfeRBI10IS/l7yA+SXxHNukUmLU9wT+lsxpxyIAh0BPsGLJS3qhDqPHIcX3QnhtDn0GmMqlgMu1vQUyRynl7JrLNSvqWClolPzQNsNTX1uDY9lk0jfcBM+wxmlO0Deaf+bSDOreIecRo+3l6iMXNy0J96z+aqlSqRjnUYVe5TivNhANieWlYuDnieT5IDhJXIx0hlU8V1JZtnI1onlRCi9RNqTmlCSA+QD3UeCIVYONAoKg8+R8LBaKbYCxnqALO/YnhajsDD4LnhYvvi1mVPlzmR4szQq2v0Jyg0X6inwKX5ddFEn1CckOciVpOHV0payTF6+r8Bn+ENQZLoRaD2y3FqapEWDVrce7jJ0cYOj8J6ZxR0gH2mJJIn07FIkLYGeuaDXqzYvlqGL21yP9xx+TjEuxrqcLL8qiT9OV0K/qZaKlx2xdBI5T9V5RUXXQ/DcVoqkpbYdYkNTsfwIpRdIebiq4K6xUNeQY6tBpVnhWZNY2RI4/QRJuKPQA+RD/ZYKvinR9WxrnS1fXKCzwSdYqbAqSqTRN5HmyxKlGqZiObsY640MyRx/LGgrYKzVqOLTUlWmTcUyT6RPHIzP8OmYAlzMd0LMKVW/malY7i6uvC7es/USrS7qBNqkhJ0QzrbklzuxKm8h4+m1V2tdjPUiFdxTsk6IcAa5oVbMKWNC6R7SHr5qXVHHqfo9MrzRahVdGDdGtbaEg+z4pnImkO4nkYQereoaC3UySQ5utTtNP71mpcf3tEmxrIki9QCfYI3WFHUCHUuWn1qbtDht3+Pz5Rrjib/s9LRNimWOi/UkJNPc0/KusUjDPIn0Bq2dxgJtQNM8arOiJdJ79cJneKSypbNcrP+QZYtWl7cDDRuQzmSyjTEgnRthLpqLk7fGe65cucWJ9CF41m910hKojyfV1Ky4hXVyG5Ua8yneM/jEFrkY6rHCOiEC9fEw6aPlF+Wja1+xwyEMKZQuIufJvdGSGB3qQSq4uvVXWgL18Qnmtj6/NsrKxZVIeTh78UWdSBP7keb3re+EyKs408Vx2IA4NhWNWr+c7gAPPy22qBPrL1TxdgHm5FVcptH58JOrnLloSJILdRX4FC8srqgT6XmqmFJAJ0STKoa6F7a1taKRdzHWNVX4DCe5Zi0LtAkpehXSu9CkinIDSWStmGPMT6TPORyf4fptmnMx1D/JckkhnRBNqegU9oV+1iRmLHBx4ky856jZTRd1nGqOIsPHpVSxdm+LqWjUy0iCP5DzDDi/yXkx1NckWbegfLd5Fa111lhINP2atIenmuoaC3QxWf5RUPu2qWi0xhYtD0l4t/ETDwP1yUBu74KsMRWNVhAFWg18gucaLTDG+oAsPytso5+tFY3W4GI9kyaZ46XGtwKegOf9wnYSWAZttDaRHn4APsPzYxdxMdTdZNhvbGEXRhZTV5xoKhqLuLjq5nhP300bFnVCrU0FLxe457RJFQNdB4+biUYjLo49g4znphsWdjHSiP6kuaHAMyGauwY94SnrhzAaIZROJ+1JTF/oAPlYR1DFxoU603SAlpOZaDRhjV4kkYQj6neNRdqYKsYVeiZEMyoqDM1Eo1GiSH8HD9cuKOoEGk6K/gW3LTSnomE0hQu1HSTT/HZ+11io56jgHlW6qCBi7e0TLKPIMFpFjb7PkslwdFgXkWuOIseyRfi9qc2KRmGsujlpz5IjahPp7UgyctjkYUsURp/xew2A68cX+veNsmXyqNHDtyblmbRr3sWfkSOT9cmCqUpBrippGK01Jz1kCAk8yccUS0tUpXK5FIkiSKfTxf0Ao1yBXDqdroJzJe2DYXQ8x0nz+i6zpGF0LDNnbnWEXSM2OgdTbQiMTlP1NoxOgb0XDcMwDMMwDMMwDMMwDMMwDMMwDMMwDMMwDMMwDMMwDMMwDMMwDKO9icI4jgPb3GN0MEHd7Rhik9HoSEJpxN1/eeJ/syplhxIYHWri7Hc8AAMvV4Hn4RtGKUx80rPLbStstus68Ehs86LRYSaeD4dvJEnaB35lt1EwOgYnrQtHaFDkQqclKfzuDIZR5KR4MqmKDRUpf9MaZoSLzosujoMgiOff9jAK40CSC8MgqE26ozgIwtDG0yiYWA/CzLx9gWanU0xoeKdNN/9zF0iKwtrptO7LwYKnOFtoGoUH6LmwRT5vdoqnwTcNVIykzc69ea0tH33gLilQJGmJJ896WJWKbnv9Z+t9sLqCQJr9wY3H//oTKwYZhZtYvTOcnrfPRToTNl5Yp0j61lOx+S7AKX0U6/aT+iaht3RNXwBmbCrFP+QP7v1VpWU9RqEqjjkctq2dCANdBEctdAPiSPGf2fruSPoFVVy6grTTuiPJcpL2gZ13hgEso2E9yYw8gHQVj8vWi0YRs2JtgFaot0gMXbn+tBjpIk4YJEXSvxnCi6qUdAbsPo/Xd1x90LJXkuTqXbh18tjRyyVIJ/a2EG0UsVY8yNXlLS+R8kvUsynUaXC3xkqV+oSh3KJANbqaKtJ3SZJmp/FM+lKSdDlZdrJakFFoMedBMmyiMJ8g70HCT16golPQl7mKJDnpU7hZoWKdRaLfMFUGUVSp3WHgZqoMXKzxVSmWsghtFKridmR5S2EchjXakwRDN1ygYqgJsFJ+oos0cfmftpFTqJVgSQVOUqDT4W3F+epOTzjLVDQKDdBuc6p4RZI04mA8k8YsSFtivQzL1doV5Z+fV/HgSE5SqLVhruQkJx0Cu5mKRsHT4jXgOf7VN59eg5v2g9cWquSsBXfW2RXFcV6/lWBdLVCxt1xexSVNRaO4EJ2ovZ/XxpNHwo0L+sScdCUc1sCuZlX8ualoFOHiqEsuzZE76AntSoZDF+TATpUDYZypaLSbixqz4+27OmlNMgyvPytWDoQ1GtRnTEWjzajd21Kp16B3vWstTjoB/lCvszt0pqLRtol0EEaVWp8sD9WfAwMdD0NXmF/diaTI0hajzcP0mMOht+pfgY51HBXcoZq8iIEOvVCRzYpGmxJLR5PmwoX2WQWaRY6hG6k6DsNKaU12bVRFmYpGqVaLsXQRaW5rkKJEeoQsfVfMf7YUxylWrLNg3boS91uwTO2sGBwMfzUVjSJCcxxJJ/YGzm0oUqBNoIrcg2f/+P6tMznEySnW43B4pEByTo/AVlIgBYoHw8WKrGPRKDBjkaQ9dwPm3rfolBbqMKhK50vgB2ygwEmT36OKKfm/+lhFOkmP/ON3qUr1+l7WPWsUaOKgw35YFzjjMDXW4BXqrp3rLsYMUxhoXL/8Z9k9xmjekPzjit7769Fc7dd/shhtFEKkYckhMx/8y561u6gacbFyp3feXuXMdZ6UQkX624c9pvSYM2fcoctV6+wPpkzpMWfOuIefGKuH1jxizpweU8b99IZ1zxbP/wPdnEXDt2xQjAAAAABJRU5ErkJggg==;" vertex="1" parent="7">
                    <mxGeometry x="560" y="121" width="209.06" height="110" as="geometry"/>
                </mxCell>
            </root>
        </mxGraphModel>
    </diagram>
</mxfile>